<?xml version="1.0" encoding="UTF-8"?>
<svg xmlns="http://www.w3.org/2000/svg" xmlns:xlink="http://www.w3.org/1999/xlink" width="40px" height="35px" viewBox="0 0 40 35" version="1.1">
<g id="surface1">
<path style=" stroke:none;fill-rule:nonzero;fill:rgb(0%,0%,0%);fill-opacity:1;" d="M 6.207031 3.960938 C 5.347656 4.835938 5.140625 5.125 5.140625 5.4375 C 5.152344 6.09375 5.757812 6.613281 6.363281 6.457031 L 6.683594 6.378906 L 6.683594 29.832031 L 7.425781 30.589844 L 30.484375 30.589844 L 30.394531 30.980469 C 30.328125 31.304688 30.378906 31.4375 30.691406 31.761719 C 31.332031 32.417969 31.78125 32.246094 33.066406 30.863281 C 34.25 29.582031 34.25 29.449219 32.863281 28.027344 C 32 27.136719 31.730469 26.929688 31.421875 26.929688 C 30.765625 26.941406 30.238281 27.582031 30.378906 28.183594 L 30.457031 28.496094 L 25.382812 28.496094 C 20.5625 28.496094 20.304688 28.484375 20.304688 28.261719 C 20.304688 27.804688 19.792969 26.039062 19.355469 24.980469 C 18.070312 21.882812 15.308594 19.058594 12.222656 17.699219 C 11.21875 17.253906 9.457031 16.730469 8.972656 16.730469 C 8.753906 16.730469 8.738281 16.496094 8.738281 11.554688 L 8.738281 6.378906 L 9.058594 6.457031 C 9.496094 6.574219 10.128906 6.222656 10.230469 5.816406 C 10.371094 5.242188 10.175781 4.914062 9.136719 3.882812 C 7.75 2.511719 7.632812 2.511719 6.207031 3.960938 M 10.9375 19.347656 C 14.574219 20.796875 17.386719 24.117188 18.222656 27.949219 L 18.351562 28.496094 L 8.738281 28.496094 L 8.738281 18.71875 L 9.484375 18.886719 C 9.894531 18.992188 10.550781 19.203125 10.9375 19.347656 M 29.210938 6.144531 C 28.699219 6.457031 28.53125 6.769531 28.53125 7.449219 C 28.53125 8.195312 29.171875 8.890625 29.867188 8.890625 C 31.0625 8.890625 31.78125 7.722656 31.230469 6.679688 C 31.035156 6.300781 30.355469 5.882812 29.941406 5.882812 C 29.761719 5.882812 29.441406 6 29.210938 6.144531 M 30.328125 7.125 C 30.40625 7.226562 30.445312 7.425781 30.394531 7.570312 C 30.277344 7.949219 29.929688 8.027344 29.648438 7.738281 C 29.441406 7.53125 29.429688 7.4375 29.542969 7.203125 C 29.714844 6.886719 30.097656 6.835938 30.328125 7.125 "/>
<path style=" stroke:none;fill-rule:nonzero;fill:rgb(0%,0%,0%);fill-opacity:1;" d="M 18.402344 8.511719 C 16.925781 8.796875 15.808594 10.195312 15.808594 11.765625 C 15.808594 13.582031 17.234375 15.035156 19.019531 15.035156 C 19.40625 15.035156 19.917969 14.980469 20.152344 14.914062 C 20.640625 14.769531 20.691406 14.929688 20.355469 15.632812 C 19.90625 16.585938 18.621094 16.746094 17.964844 15.921875 C 17.246094 15.035156 17.089844 14.902344 16.769531 14.902344 C 16.347656 14.902344 15.808594 15.453125 15.808594 15.882812 C 15.808594 16.679688 16.71875 17.816406 17.707031 18.25 C 17.992188 18.378906 18.542969 18.457031 19.070312 18.457031 C 19.792969 18.457031 20.085938 18.390625 20.664062 18.078125 C 21.472656 17.671875 22.144531 16.875 22.363281 16.105469 C 22.527344 15.476562 22.527344 11.449219 22.363281 10.824219 C 21.925781 9.242188 20.113281 8.183594 18.402344 8.511719 M 20.058594 10.824219 C 21.039062 11.714844 20.230469 13.242188 18.902344 13.019531 C 17.8125 12.847656 17.414062 11.570312 18.222656 10.835938 C 18.789062 10.3125 19.496094 10.3125 20.058594 10.824219 M 25.058594 8.707031 C 24.316406 9.035156 23.789062 9.527344 23.414062 10.234375 C 23.09375 10.878906 23.066406 11.019531 23.027344 13.074219 C 22.964844 15.566406 23.09375 16.289062 23.699219 17.125 C 25.214844 19.242188 28.464844 18.808594 29.53125 16.355469 C 29.816406 15.710938 29.839844 11.753906 29.570312 10.785156 C 29.328125 9.949219 28.324219 8.890625 27.554688 8.652344 C 26.832031 8.445312 25.613281 8.457031 25.058594 8.707031 M 27.410156 10.980469 L 27.757812 11.371094 L 27.757812 15.582031 L 27.324219 16.023438 C 26.808594 16.546875 26.253906 16.613281 25.613281 16.210938 C 25.035156 15.855469 24.894531 15.214844 24.957031 13.136719 C 24.996094 11.335938 25.097656 10.992188 25.730469 10.628906 C 26.203125 10.339844 27 10.507812 27.410156 10.980469 "/>
</g>
</svg>
