<?xml version="1.0" encoding="UTF-8"?>
<svg xmlns="http://www.w3.org/2000/svg" xmlns:xlink="http://www.w3.org/1999/xlink" width="72px" height="72px" viewBox="0 0 72 72" version="1.1">
<g id="surface1">
<path style=" stroke:none;fill-rule:nonzero;fill:rgb(0%,0%,0%);fill-opacity:1;" d="M 52.199219 7.703125 C 49.320312 8.28125 46.441406 9.433594 45.574219 10.222656 C 44.710938 11.089844 40.464844 16.199219 36.214844 21.671875 C 31.96875 27.144531 28.078125 31.609375 27.648438 31.679688 C 27.214844 31.679688 26.28125 32.328125 25.558594 33.121094 C 24.480469 34.34375 23.328125 34.558594 18.289062 34.558594 C 10.65625 34.558594 10.078125 35.0625 10.078125 41.761719 C 10.078125 48.023438 10.871094 48.960938 16.273438 48.960938 C 19.222656 48.960938 20.160156 49.246094 20.160156 50.039062 C 20.160156 50.832031 19.367188 51.121094 17.207031 51.121094 C 14.976562 51.121094 13.824219 51.550781 12.167969 53.207031 C 9.359375 56.089844 9.359375 59.113281 12.167969 61.992188 L 14.257812 64.078125 L 44.785156 64.078125 L 46.871094 61.992188 C 48.3125 60.550781 48.960938 59.183594 48.960938 57.601562 C 48.960938 54.144531 45.574219 51.121094 41.832031 51.121094 C 39.671875 51.121094 38.878906 50.832031 38.878906 50.039062 C 38.878906 49.246094 39.816406 48.960938 42.695312 48.960938 C 45.648438 48.960938 46.871094 48.601562 47.878906 47.519531 C 48.886719 46.367188 50.113281 46.078125 53.785156 46.078125 C 58.175781 46.078125 58.320312 46.152344 58.320312 47.878906 C 58.320312 48.886719 57.816406 49.894531 57.238281 50.113281 C 56.664062 50.398438 56.160156 50.832031 56.160156 51.191406 C 56.160156 51.550781 56.664062 51.839844 57.238281 51.839844 C 57.816406 51.839844 58.320312 52.34375 58.320312 52.921875 C 58.320312 53.566406 57.816406 54.214844 57.238281 54.433594 C 56.664062 54.71875 56.160156 55.152344 56.160156 55.511719 C 56.160156 55.871094 56.664062 56.160156 57.238281 56.160156 C 57.816406 56.160156 58.320312 56.664062 58.320312 57.238281 C 58.320312 57.886719 57.816406 58.535156 57.238281 58.753906 C 55.871094 59.328125 55.871094 60.480469 57.238281 60.480469 C 57.816406 60.480469 58.320312 60.984375 58.320312 61.558594 C 58.320312 62.136719 58.679688 62.640625 59.039062 62.640625 C 59.472656 62.640625 59.761719 61.992188 59.761719 61.199219 C 59.761719 60.40625 60.265625 59.542969 60.839844 59.328125 C 61.414062 59.039062 61.921875 58.609375 61.921875 58.246094 C 61.921875 57.886719 61.414062 57.601562 60.839844 57.601562 C 60.265625 57.601562 59.761719 57.097656 59.761719 56.519531 C 59.761719 55.871094 60.265625 55.222656 60.839844 55.007812 C 61.414062 54.71875 61.921875 54.289062 61.921875 53.929688 C 61.921875 53.566406 61.414062 53.28125 60.839844 53.28125 C 60.265625 53.28125 59.761719 52.777344 59.761719 52.199219 C 59.761719 51.550781 60.265625 50.902344 60.839844 50.6875 C 61.414062 50.398438 61.921875 49.96875 61.921875 49.609375 C 61.921875 49.246094 61.414062 48.960938 60.839844 48.960938 C 60.265625 48.960938 59.761719 48.3125 59.761719 47.59375 C 59.761719 46.871094 60.265625 46.078125 60.839844 45.792969 C 61.488281 45.574219 61.921875 44.496094 61.921875 43.199219 C 61.921875 41.902344 61.488281 40.824219 60.839844 40.609375 C 59.976562 40.246094 59.761719 38.449219 59.761719 30.527344 C 59.761719 24.550781 60.046875 20.878906 60.480469 20.878906 C 60.910156 20.878906 61.199219 20.230469 61.199219 19.441406 C 61.199219 18.648438 60.910156 18 60.480469 18 C 59.472656 18 59.542969 11.808594 60.625 10.152344 C 61.273438 9.070312 61.273438 8.496094 60.550781 7.632812 C 59.398438 6.265625 58.824219 6.265625 52.199219 7.703125 Z M 59.761719 8.785156 C 59.761719 9.289062 58.105469 10.800781 56.160156 12.167969 L 52.558594 14.617188 L 52.558594 44.640625 L 48.960938 44.640625 L 48.960938 29.59375 C 48.960938 14.976562 48.886719 14.542969 47.449219 14.183594 C 46.367188 13.894531 46.007812 13.320312 46.222656 12.097656 C 46.441406 10.65625 47.160156 10.296875 51.839844 9.214844 C 58.609375 7.777344 59.761719 7.703125 59.761719 8.785156 Z M 41.039062 23.6875 C 35.207031 31.464844 34.921875 31.679688 32.257812 31.679688 C 28.871094 31.679688 28.511719 32.328125 37.367188 21.382812 L 44.136719 12.886719 L 45.574219 14.328125 L 47.015625 15.769531 Z M 58.320312 15.480469 C 58.320312 17.785156 58.175781 18 56.160156 18 C 53.496094 18 53.207031 15.839844 55.65625 14.183594 C 57.960938 12.527344 58.320312 12.671875 58.320312 15.480469 Z M 47.230469 38.015625 C 47.015625 38.160156 45.144531 36.863281 43.054688 34.992188 C 40.96875 33.191406 38.734375 31.679688 38.015625 31.679688 C 37.152344 31.679688 38.230469 29.808594 41.976562 24.839844 L 47.160156 18 L 47.375 27.792969 C 47.449219 33.191406 47.375 37.800781 47.230469 38.015625 Z M 60.480469 19.441406 C 60.480469 19.800781 59.039062 20.160156 57.238281 20.160156 C 55.441406 20.160156 54 19.800781 54 19.441406 C 54 19.007812 55.441406 18.71875 57.238281 18.71875 C 59.039062 18.71875 60.480469 19.007812 60.480469 19.441406 Z M 58.320312 30.601562 L 58.320312 40.320312 L 54 40.320312 L 54 20.878906 L 58.320312 20.878906 Z M 43.054688 36.863281 C 45.503906 38.953125 47.519531 41.039062 47.519531 41.542969 C 47.519531 42.191406 46.152344 42.480469 42.550781 42.480469 C 38.160156 42.480469 37.367188 42.265625 36.433594 40.894531 C 35.496094 39.601562 35.28125 39.527344 35.28125 40.464844 C 35.28125 42.335938 37.585938 43.199219 42.839844 43.199219 L 47.59375 43.199219 L 47.375 45.144531 L 47.160156 47.160156 L 11.878906 47.160156 L 11.878906 36.359375 L 18.792969 36.144531 C 25.054688 36 25.777344 35.785156 26.136719 34.558594 C 26.496094 33.265625 27.144531 33.121094 32.542969 33.121094 L 38.519531 33.121094 Z M 61.199219 43.199219 C 61.199219 45.289062 61.128906 45.359375 57.601562 45.359375 C 54.070312 45.359375 54 45.289062 54 43.199219 C 54 41.113281 54.070312 41.039062 57.601562 41.039062 C 61.128906 41.039062 61.199219 41.113281 61.199219 43.199219 Z M 37.441406 50.039062 C 37.441406 50.902344 36.070312 51.121094 29.519531 51.121094 C 22.96875 51.121094 21.601562 50.902344 21.601562 50.039062 C 21.601562 49.175781 22.96875 48.960938 29.519531 48.960938 C 36.070312 48.960938 37.441406 49.175781 37.441406 50.039062 Z M 45.863281 54.144531 C 47.953125 56.089844 47.953125 58.824219 45.9375 60.984375 C 44.425781 62.640625 44.136719 62.640625 29.59375 62.640625 C 15.480469 62.640625 14.761719 62.566406 13.175781 61.054688 C 11.089844 59.113281 11.089844 56.375 13.105469 54.214844 C 14.617188 52.558594 14.902344 52.558594 29.449219 52.558594 C 43.558594 52.558594 44.28125 52.632812 45.863281 54.144531 Z M 45.863281 54.144531 "/>
<path style=" stroke:none;fill-rule:nonzero;fill:rgb(0%,0%,0%);fill-opacity:1;" d="M 35.351562 37.871094 C 35.351562 38.664062 35.566406 38.878906 35.785156 38.304688 C 36 37.800781 35.929688 37.152344 35.710938 36.9375 C 35.496094 36.648438 35.28125 37.078125 35.351562 37.871094 Z M 35.351562 37.871094 "/>
<path style=" stroke:none;fill-rule:nonzero;fill:rgb(0%,0%,0%);fill-opacity:1;" d="M 15.695312 38.664062 C 16.992188 38.808594 18.9375 38.808594 20.015625 38.664062 C 21.097656 38.519531 20.015625 38.375 17.640625 38.375 C 15.265625 38.375 14.398438 38.519531 15.695312 38.664062 Z M 15.695312 38.664062 "/>
<path style=" stroke:none;fill-rule:nonzero;fill:rgb(0%,0%,0%);fill-opacity:1;" d="M 14.976562 40.824219 C 15.839844 40.96875 17.136719 40.96875 17.855469 40.824219 C 18.503906 40.609375 17.785156 40.464844 16.199219 40.535156 C 14.617188 40.535156 14.039062 40.679688 14.976562 40.824219 Z M 14.976562 40.824219 "/>
<path style=" stroke:none;fill-rule:nonzero;fill:rgb(0%,0%,0%);fill-opacity:1;" d="M 15.695312 42.984375 C 16.992188 43.128906 18.9375 43.128906 20.015625 42.984375 C 21.097656 42.839844 20.015625 42.695312 17.640625 42.695312 C 15.265625 42.695312 14.398438 42.839844 15.695312 42.984375 Z M 15.695312 42.984375 "/>
<path style=" stroke:none;fill-rule:nonzero;fill:rgb(0%,0%,0%);fill-opacity:1;" d="M 14.257812 45.144531 C 14.761719 45.359375 15.40625 45.289062 15.625 45.070312 C 15.910156 44.855469 15.480469 44.640625 14.6875 44.710938 C 13.894531 44.710938 13.679688 44.929688 14.257812 45.144531 Z M 14.257812 45.144531 "/>
<path style=" stroke:none;fill-rule:nonzero;fill:rgb(0%,0%,0%);fill-opacity:1;" d="M 18.214844 45.144531 C 18.863281 45.289062 20.015625 45.289062 20.734375 45.144531 C 21.382812 44.929688 20.808594 44.785156 19.441406 44.785156 C 18.070312 44.785156 17.496094 44.929688 18.214844 45.144531 Z M 18.214844 45.144531 "/>
<path style=" stroke:none;fill-rule:nonzero;fill:rgb(0%,0%,0%);fill-opacity:1;" d="M 14.398438 55.800781 C 12.527344 58.105469 15.335938 61.632812 17.855469 60.046875 C 19.441406 59.039062 19.800781 57.097656 18.71875 55.800781 C 17.566406 54.433594 15.550781 54.433594 14.398438 55.800781 Z M 18.359375 57.601562 C 18.359375 58.894531 17.929688 59.472656 16.703125 59.617188 C 15.769531 59.761719 14.902344 59.398438 14.6875 58.753906 C 13.96875 56.878906 14.976562 55.296875 16.703125 55.585938 C 17.929688 55.726562 18.359375 56.304688 18.359375 57.601562 Z M 18.359375 57.601562 "/>
<path style=" stroke:none;fill-rule:nonzero;fill:rgb(0%,0%,0%);fill-opacity:1;" d="M 23.039062 55.800781 C 21.167969 58.105469 23.976562 61.632812 26.496094 60.046875 C 28.078125 59.039062 28.441406 57.097656 27.359375 55.800781 C 26.207031 54.433594 24.191406 54.433594 23.039062 55.800781 Z M 27 57.601562 C 27 58.894531 26.566406 59.472656 25.34375 59.617188 C 24.40625 59.761719 23.542969 59.398438 23.328125 58.753906 C 22.609375 56.878906 23.617188 55.296875 25.34375 55.585938 C 26.566406 55.726562 27 56.304688 27 57.601562 Z M 27 57.601562 "/>
<path style=" stroke:none;fill-rule:nonzero;fill:rgb(0%,0%,0%);fill-opacity:1;" d="M 31.679688 55.800781 C 30.601562 57.097656 30.960938 59.039062 32.617188 60.046875 C 35.0625 61.632812 37.871094 58.105469 36 55.800781 C 34.847656 54.433594 32.832031 54.433594 31.679688 55.800781 Z M 35.640625 57.601562 C 35.640625 58.894531 35.207031 59.472656 33.984375 59.617188 C 33.046875 59.761719 32.183594 59.398438 31.96875 58.753906 C 31.246094 56.878906 32.257812 55.296875 33.984375 55.585938 C 35.207031 55.726562 35.640625 56.304688 35.640625 57.601562 Z M 35.640625 57.601562 "/>
<path style=" stroke:none;fill-rule:nonzero;fill:rgb(0%,0%,0%);fill-opacity:1;" d="M 40.320312 55.800781 C 39.238281 57.097656 39.601562 59.039062 41.257812 60.046875 C 43.703125 61.632812 46.511719 58.105469 44.640625 55.800781 C 43.488281 54.433594 41.472656 54.433594 40.320312 55.800781 Z M 44.28125 57.601562 C 44.28125 58.894531 43.847656 59.472656 42.625 59.617188 C 41.6875 59.761719 40.824219 59.398438 40.609375 58.753906 C 39.886719 56.878906 40.894531 55.296875 42.625 55.585938 C 43.847656 55.726562 44.28125 56.304688 44.28125 57.601562 Z M 44.28125 57.601562 "/>
</g>
</svg>
