<?xml version="1.0" encoding="UTF-8"?>
<svg version="1.1" xmlns="http://www.w3.org/2000/svg" width="128" height="128">
<path d="M0 0 C1.20557053 -0.00428513 2.41114105 -0.00857025 3.65324402 -0.01298523 C6.19566217 -0.01871008 8.7380967 -0.01924245 11.28051758 -0.01489258 C15.14498219 -0.01173752 19.00867699 -0.03519948 22.87304688 -0.06054688 C25.35286363 -0.06282071 27.83268242 -0.06352297 30.3125 -0.0625 C32.0270916 -0.07631462 32.0270916 -0.07631462 33.77632141 -0.09040833 C43.51049621 -0.03501171 52.9201159 1.10366464 60.63671875 7.5078125 C69.15817536 16.3972411 69.66594989 27.89427161 69.65625 39.5703125 C69.66053513 40.72770432 69.66482025 41.88509613 69.66923523 43.07756042 C69.67495374 45.51564889 69.67549718 47.95375442 69.67114258 50.3918457 C69.66798723 54.0916096 69.69145839 57.79056934 69.71679688 61.49023438 C69.7190708 63.87109275 69.71977293 66.25195326 69.71875 68.6328125 C69.72795975 69.72382767 69.73716949 70.81484283 69.74665833 71.93891907 C69.68864378 81.72940108 68.66125752 91.86771343 62.15234375 99.6171875 C53.24418163 107.96374809 42.3066983 108.6107594 30.7109375 108.6015625 C29.50536697 108.60584763 28.29979645 108.61013275 27.05769348 108.61454773 C24.51527533 108.62027258 21.9728408 108.62080495 19.43041992 108.61645508 C15.56595531 108.61330002 11.70226051 108.63676198 7.83789062 108.66210938 C5.35807387 108.66438321 2.87825508 108.66508547 0.3984375 108.6640625 C-0.74462357 108.67327225 -1.88768463 108.68248199 -3.06538391 108.69197083 C-12.80344214 108.63655211 -22.20046876 107.49320184 -29.92578125 101.09765625 C-38.35288907 92.28749808 -38.95447159 81.20434355 -38.9453125 69.65625 C-38.94959763 68.45067947 -38.95388275 67.24510895 -38.95829773 66.00300598 C-38.96402258 63.46058783 -38.96455495 60.9181533 -38.96020508 58.37573242 C-38.95705002 54.51126781 -38.98051198 50.64757301 -39.00585938 46.78320312 C-39.00813321 44.30338637 -39.00883547 41.82356758 -39.0078125 39.34375 C-39.01702225 38.20068893 -39.02623199 37.05762787 -39.03572083 35.87992859 C-38.98030211 26.14187036 -37.83695184 16.74484374 -31.44140625 9.01953125 C-22.63124808 0.59242343 -11.54809355 -0.00915909 0 0 Z " fill="#AAAAAA" transform="translate(48.64453125,9.69921875)"/>
</svg>
